<svg xmlns="http://www.w3.org/2000/svg" xmlns:xlink="http://www.w3.org/1999/xlink" viewBox="0 0 90.97586 64.40064"><defs><style>.cls-1{fill:#fff;}.cls-2{fill:url(#Безымянный_градиент_92);}.cls-3{fill:url(#Безымянный_градиент_81);}.cls-4{fill:url(#Безымянный_градиент_81-2);}.cls-5{fill:url(#Безымянный_градиент_127);}.cls-6{fill:url(#Безымянный_градиент_122);}</style><linearGradient id="Безымянный_градиент_92" x1="50.13194" y1="63.77894" x2="49.95894" y2="16.72078" gradientUnits="userSpaceOnUse"><stop offset="0" stop-color="#216de4"/><stop offset="0.05464" stop-color="#2581e5"/><stop offset="0.21264" stop-color="#30b7e8"/><stop offset="0.34938" stop-color="#38deea"/><stop offset="0.45806" stop-color="#3df6ec"/><stop offset="0.52513" stop-color="#3fffec"/><stop offset="0.58767" stop-color="#3ef9ec"/><stop offset="0.67272" stop-color="#3ae7eb"/><stop offset="0.77068" stop-color="#34cbe9"/><stop offset="0.8783" stop-color="#2ca3e7"/><stop offset="0.99263" stop-color="#2271e4"/><stop offset="1" stop-color="#216de4"/></linearGradient><linearGradient id="Безымянный_градиент_81" x1="65.83312" y1="32.55144" x2="65.37233" y2="30.93923" gradientUnits="userSpaceOnUse"><stop offset="0" stop-color="#ff3d38"/><stop offset="0.13652" stop-color="#f43a36"/><stop offset="0.37456" stop-color="#d8342f"/><stop offset="0.68573" stop-color="#a92925"/><stop offset="1" stop-color="#731c19"/></linearGradient><linearGradient id="Безымянный_градиент_81-2" x1="65.96699" y1="30.78533" x2="65.96693" y2="30.78509" xlink:href="#Безымянный_градиент_81"/><linearGradient id="Безымянный_градиент_127" x1="76.14985" y1="64.39725" x2="76.13039" y2="17.77716" gradientUnits="userSpaceOnUse"><stop offset="0" stop-color="#731c19"/><stop offset="0.02757" stop-color="#8b3321"/><stop offset="0.06831" stop-color="#a74e2b"/><stop offset="0.11432" stop-color="#be6533"/><stop offset="0.16692" stop-color="#d07639"/><stop offset="0.23005" stop-color="#dd823d"/><stop offset="0.31435" stop-color="#e4893f"/><stop offset="0.50754" stop-color="#e68b40"/><stop offset="0.69244" stop-color="#be6432"/><stop offset="1" stop-color="#731c19"/></linearGradient><linearGradient id="Безымянный_градиент_122" x1="20.06283" y1="61.87246" x2="19.41895" y2="1.44948" gradientUnits="userSpaceOnUse"><stop offset="0" stop-color="#731c19"/><stop offset="0.06419" stop-color="#943c24"/><stop offset="0.13702" stop-color="#b2582e"/><stop offset="0.21428" stop-color="#c96f36"/><stop offset="0.29692" stop-color="#d97f3c"/><stop offset="0.38863" stop-color="#e3883f"/><stop offset="0.50754" stop-color="#e68b40"/><stop offset="0.55328" stop-color="#d67c3b"/><stop offset="0.69297" stop-color="#ac532c"/><stop offset="0.81893" stop-color="#8d3522"/><stop offset="0.92554" stop-color="#7a231b"/><stop offset="1" stop-color="#731c19"/></linearGradient></defs><title>Ресурс 2</title><g id="Слой_2" data-name="Слой 2"><g id="Слой_2-2" data-name="Слой 2"><path class="cls-1" d="M90.751,63.71373c-.44706.88235-2.08393.61137-3.77394.65135-3.42.08-13.75,0-13.75,0s-2.36,0-2.71-3.21.17-4.9-.96-5.98c-1.12-1.09-1.46-.75-3.08-.75-1.63,0-3.21.21-3.29-1.13-.09-1.33-.13-2.46-.13-2.46a1.37172,1.37172,0,0,1,1.5-1.58c.46,0,.83,0,1.12-.01.51-.01.78-.02.9-.03a.814.814,0,0,1,.09-.01c.31-.02.47-.03.47-.03a1.56861,1.56861,0,0,0,1.36-.52.948.948,0,0,0,.11-.2,1.878,1.878,0,0,0,.12-.91,11.13242,11.13242,0,0,0-.18-1.11v-.01c-.01-.59-.07-1.16-.13-1.87-.14-1.69-.44-3.86-.65-6.04a26.85637,26.85637,0,0,0-1.71-7.6.72817.72817,0,0,0-.09-.13s-.1.29-.23.67c-.12.37-.28.82-.39,1.13995l-.01-.02q-.03.105-.06.18a.10862.10862,0,0,0-.01.05.94893.94893,0,0,1-.03.09.161.161,0,0,0-.03.09.07753.07753,0,0,0-.01.03l-1.68,4.99c-.06.17-.54,1.72-1.33,3.88a51.02413,51.02413,0,0,1-5.46,11.16c-3.8,5.33-7.59,8.9-15.13995,10.52q-.66615.12395-1.26815.24783l-.02205.00217c-5.85752-.01964-11.0527-.20357-16.43943-.211a12.36455,12.36455,0,0,1-3.127-.328c-.57395-.13-1.07451-.27641-1.61477-.43293-5.16-1.5-13.5986-6.938-17.13864-17.268a41.83921,41.83921,0,0,1-1.73-17.62c.56-6.25,3.24533-14.64272,9.43-20.33808a25.4007,25.4007,0,0,1,6.48958-4.48958c8.5-3.92,14.99183-3.32924,18.25-2.58333a55.27206,55.27206,0,0,1,7.72312,2.5668,15.04485,15.04485,0,0,1,1.54729.73414c.01,0,.01.01.02.02a.7.7,0,0,1,.1.08c.08.07.17.14.26.23a1.52415,1.52415,0,0,1,.18.18,3.22844,3.22844,0,0,1,.99,2.34,3.38222,3.38222,0,0,1-3.38,3.38,3.05944,3.05944,0,0,1-.74-.09,3.36218,3.36218,0,0,1-2.51-2.36c-.06-.21-.7031-2.655-1.38309-3.30493-3.02-2.78-5.01569-3.17364-9.45313-3.01563A18.04156,18.04156,0,0,0,10.097,19.41507a16.90871,16.90871,0,0,0,9.04,14.98,54.02064,54.02064,0,0,0,1.21,11.57c2.84,13.25,6.75,14.08,10,14.17,3.1.08,9.82-4.76,14.84-19.47.26-.74.51-1.49.75-2.28,3.93-12.78,7.71-18.95,14.52-21.09.16-.05.33-.1.5-.15a16.19054,16.19054,0,0,1,1.94-.43c.03,0,.04-.01.06-.01a26.42349,26.42349,0,0,1,4.31-.32c3.75,0,5.67.01,8.33,0,4.59,0,6.67961,3.12853,7.65,5.51,2.58627,6.34692,5.638,24.499,6.76274,36.8892l.11765.74118s.04706.16471.43529,1.90588C90.84509,62.59608,91.22525,62.77765,90.751,63.71373Z"/><path class="cls-2" d="M75.597,16.3851c-2.93.01-3.7.52-4.45,1.03-1.44.99005-4.02,3.36-5.53,9.01-1.1,4.11-2.49,11.13-3.43,15.46a51.02413,51.02413,0,0,1-5.46,11.16c-3.8,5.33-7.59,8.9-15.13995,10.52q-.64508.12-1.23.24c-.02,0-.04.01-.06.01-6.94607-.06607-10.07248-.178-15.805-.19,1.34,0,6.34127.571,12.13294-4.2685,7.01423-5.861,8.70833-18.19394,8.70833-18.19394s.15461-.82812.15461-.85815l.44913-1.91943c3.93-12.78,7.71-18.95,14.52-21.09a2.96135,2.96135,0,0,0,.5-.15,16.19054,16.19054,0,0,1,1.94-.43c.03,0,.04-.01.06-.01a26.42349,26.42349,0,0,1,4.31-.32C71.01707,16.3851,73.14708,16.40512,75.597,16.3851Z"/><path class="cls-3" d="M65.33708,32.5751c.14215-.436.36163-1.07416.62982-1.78973-.00061.00183-.4,1.17022-.61987,1.80969-.03.08-.05.15-.08.21a.10862.10862,0,0,1,.01-.05Q65.307,32.68012,65.33708,32.5751Z"/><polygon class="cls-4" points="65.967 30.785 65.967 30.785 65.967 30.785 65.967 30.785"/><path class="cls-5" d="M68.51707,46.9451a2.03524,2.03524,0,0,1,.02.42C68.52708,47.1351,68.51707,46.97506,68.51707,46.9451Zm19.5986,13.5098a24.709,24.709,0,0,0,.21765-6.70245c-1.23-9.75-3.53628-22.45738-5.25625-27.65739-1.91-5.79-4.5-7.78-7.04-8.12-2.55-.33-4.65,1.21-6.5,4.04-2.42,3.71-2.99,7.22-3.57,8.77a.72817.72817,0,0,1,.09.13,26.85637,26.85637,0,0,1,1.71,7.6c.21,2.18.51,4.35.65,6.04.06.71.12,1.28.13,1.87v.01a6.99436,6.99436,0,0,1-.12,1.46,2.57044,2.57044,0,0,1-1.76,1.31.814.814,0,0,0-.09.01c-.12.00994-.39.02-.9.03-.29.01-.66.01-1.12.01a1.37172,1.37172,0,0,0-1.5,1.58s.04,1.13.13,2.46c.08,1.34,1.66,1.13,3.29,1.13,1.62,0,1.96-.34,3.08.75,1.13,1.08.73638,2.8396.27627,6.0357-.51188,3.55567,2.75,3.125,2.75,3.125s10.97373.10932,14.39371.0293c1.69-.04,1.27982-.01606,2.268-.00456L88.7392,64.302s-1.04558.0299-.97647-1.2C87.78692,62.6716,87.951,61.67843,88.11567,60.4549Z"/><path class="cls-6" d="M37.224,4.32016S34.5875.78635,27.08332,1.17953A25.76229,25.76229,0,0,0,5.45116,15.73744c-2.55161,5.20377-3.47469,11.736-3.45834,18.29863.01133,4.54471,1.04167,14.41666,9.16667,21.45833s15.2155,6.04972,20.625,4.375c0,0-6.60417,2.48262-10.35417-9.934s-2.125-27.6875,2.38332-36.67918C28.294,4.32029,34.46507,3.34348,37.224,4.32016Z"/></g></g></svg>